# xmcd
#
# Track frame offsets:
#	150
#	15559
#	25929
#	35889
#	50443
#	60183
#	76869
#	93402
#	108609
#	121170
#	135424
#	151470
#
# Disc length: 2177 seconds
#
# Revision: 0
# Processed by: cddbd v1.5.2PL0 Copyright (c) Steve Scherf et al.
# Submitted via: EasyCDDAExtractor 16.0.6.1
#
DISCID=8e087f0c
DTITLE=Άνευ ερμηνευτού - Ο σκληρός Απρίλης του 45-Μ. Χατζιδάκις
DYEAR=1998
DGENRE=Ορχηστρική
TTITLE0=Θα γυρίσει ο τροχός [Μ. Σουγιούλ-Α.Σακελλάριος-Χ.Γιαννακ/λος]
TTITLE1=Θα πάω εκεί στην Αραπιά (Η μάγισσα της Αραπιάς)[Βασ. Τσιτσάνης]
TTITLE2=Τα ματόκλαδά σου λάμπουν [Μ. Βαμβακάρης]
TTITLE3=Πήρα τη στράτα κι έρχομαι (Στρώσε μου να κοιμηθώ)[Β. Τσιτσάνης]
TTITLE4=Ο καθρέφτης [Μ. Χατζιδάκις]
TTITLE5=Του Βοτανικού ο μάγκας [Γ. Μπιθικώτσης-Λ. Τσώλης]
TTITLE6=Μάγκας βγήκε για σεργιάνι [Α. Καλδάρας-Β. Τσιτσάνης]
TTITLE7=Μέσα στης ζωής τα μονοπάτια (Η νυχτερίδα) [Δ. Γκόγκος]
TTITLE8=Κάτω στα Λεμονάδικα [Ε. Παπάζογλου]
TTITLE9=Βγήκα στου Βοτανικού τα πέριξ [Στ. Κηρομύτης]
TTITLE10=Το πικραμένο αγόρι [Π. Τσαουσάκης-Β. Ταμβάκης]
TTITLE11=Το δικό σου το μαράζι [Γ. Μητσάκης]
EXTD=
EXTT0=
EXTT1=
EXTT2=
EXTT3=
EXTT4=
EXTT5=
EXTT6=
EXTT7=
EXTT8=
EXTT9=
EXTT10=
EXTT11=
PLAYORDER=
